<svg xmlns="http://www.w3.org/2000/svg" xmlns:xlink="http://www.w3.org/1999/xlink" width="20" height="16"><defs><path id="a" d="M10.5 6.5a.5.5 0 1 1 1 0v4a.5.5 0 1 1-1 0v-4zM11 14a1 1 0 1 1 0-2 1 1 0 0 1 0 2zm9.785 1.92A1.988 1.988 0 0 1 19.058 17H2.929a1.983 1.983 0 0 1-1.589-3.097L9.396 1.867a1.917 1.917 0 0 1 3.206-.004L20.658 13.9c.409.6.457 1.374.127 2.02zm-.954-1.457L11.768 2.415a.917.917 0 0 0-1.538.004L2.169 14.463A.983.983 0 0 0 2.942 16h16.103a.983.983 0 0 0 .786-1.537z"/></defs><use fill="#666" transform="translate(-1 -1)" xlink:href="#a"/></svg>